<svg xmlns="http://www.w3.org/2000/svg" xmlns:xlink="http://www.w3.org/1999/xlink" viewBox="0 0 355.281 419.318">
  <defs>
    <style>
      .cls-1 {
        fill: none;
        clip-rule: evenodd;
      }

      .cls-2 {
        clip-path: url(#clip-path);
      }

      .cls-3 {
        fill: #5b80bb;
      }

      .cls-4 {
        clip-path: url(#clip-path-2);
      }

      .cls-5 {
        fill: #e7c447;
      }

      .cls-6 {
        clip-path: url(#clip-path-3);
      }

      .cls-7 {
        fill: #527bbf;
      }

      .cls-8 {
        clip-path: url(#clip-path-4);
      }

      .cls-9 {
        fill: #f0cc49;
      }
    </style>
    <clipPath id="clip-path">
      <path id="Path_17" data-name="Path 17" class="cls-1" d="M177.654-153l-6.468,8.158c-.548.694-56.228,69.42-162.618,73.174l-7.3.258-.606,7.28c-.206,2.49-4.867,61.8,13.9,132.256,8.07,30.3,19.3,57.879,33.455,82.538,2.657-6.929,5.926-13.765,8.975-20.763A397.387,397.387,0,0,1,82.325,85.079,393.861,393.861,0,0,1,114.5,43.485,389.82,389.82,0,0,1,152.04,7.455,385.9,385.9,0,0,1,192.6-21.564c7.022-3.979,13.691-8.182,20.642-11.571,3.444-1.744,6.786-3.554,10.181-5.169l10.129-4.6c3.3-1.566,6.647-2.9,9.954-4.179l9.712-3.839c6.5-2.183,12.693-4.439,18.753-6.241q4.557-1.291,8.92-2.534c2.9-.834,5.723-1.645,8.539-2.238,5.616-1.231,10.85-2.635,15.879-3.513l14.028-2.487,11.974-1.516q2.7-.337,5.108-.642,2.423-.185,4.535-.348l7.135-.532,5.926-.436-7.3-.258c-106.39-3.754-162.067-72.48-162.61-73.163Z" transform="translate(0 153)"/>
    </clipPath>
    <clipPath id="clip-path-2">
      <path id="Path_19" data-name="Path 19" class="cls-1" d="M292.411-115.965l-.606-7.28s-2.015.469-5.791,1.352c-1.884.439-4.206.982-6.937,1.621l-4.382,1.039-4.916,1.415c-3.449,1-7.272,2.1-11.432,3.3q-6.128,2.106-13.225,4.549c-4.711,1.6-9.572,3.762-14.752,5.777-2.6.982-5.191,2.191-7.837,3.425l-8.116,3.743c-5.489,2.613-11.039,5.69-16.819,8.687q-4.216,2.484-8.572,5.051c-2.907,1.686-5.838,3.414-8.695,5.372q-4.319,2.842-8.753,5.758c-2.915,1.993-5.761,4.173-8.684,6.279-5.915,4.108-11.467,8.994-17.3,13.6a356.253,356.253,0,0,0-32.575,32.01,352.5,352.5,0,0,0-28.21,37.1A348.882,348.882,0,0,0,62.635,57.2,344.45,344.45,0,0,0,47.187,98.456c-1.752,6.91-3.847,13.535-5.111,20.239-.691,3.332-1.481,6.586-2.076,9.847q-.8,4.895-1.588,9.674c-.59,3.156-.943,6.315-1.272,9.419q-.531,4.639-1.047,9.131c-.112,1.991-.25,3.91-.381,5.846a265.271,265.271,0,0,0,76.423,50.431l3.3,1.442,3.3-1.442C198.234,178.27,253.488,110.235,278.512,16.291c18.766-70.453,14.108-129.766,13.9-132.256L110.831,50.614,91.375,68.463" transform="translate(-35.711 123.245)"/>
    </clipPath>
    <clipPath id="clip-path-3">
      <path id="Path_21" data-name="Path 21" class="cls-1" d="M41.663,101.281C27.506,76.622,16.277,49.04,8.207,18.744Q5.645,9.127,3.647-.176a413.488,413.488,0,0,1,29.9-29.5,423.188,423.188,0,0,1,45.008-34.2,419.121,419.121,0,0,1,49.019-26.94,415.089,415.089,0,0,1,50.206-18.813c8.4-2.172,16.493-4.678,24.656-6.255,4.061-.85,8.037-1.8,12.013-2.528q5.972-.991,11.8-1.952c3.858-.707,7.711-1.154,11.5-1.566q5.664-.646,11.152-1.275c7.36-.452,14.418-1.069,21.209-1.248l9.967-.143c1.607-.027,3.192-.058,4.757-.058,1.6,0,3.175.03,4.736.118,6.172.285,12,.291,17.464.781,4.3.373,8.336.724,12.183,1.061,1.826.219,3.683.422,5.544.606,3.724.513,7.2.99,10.384,1.429,1.3.178,2.525.348,3.726.515l-4.267.315-4.157.324-.378.027q-2.406.3-5.108.642l-.255.033c-3.548.447-7.464.943-11.719,1.483l-14.028,2.487c-4.4.768-8.958,1.939-13.79,3.044q-1.037.239-2.089.469c-2.816.592-5.643,1.4-8.539,2.237s-5.882,1.673-8.92,2.534c-6.06,1.8-12.254,4.058-18.753,6.241q-4.627,1.83-9.405,3.715l-.307.123c-3.307,1.283-6.658,2.613-9.954,4.179l-10.129,4.6-.159.074c-3.34,1.6-6.633,3.378-10.022,5.095-6.951,3.389-13.62,7.593-20.642,11.571a385.9,385.9,0,0,0-40.56,29.019A389.822,389.822,0,0,0,108.148-5.9Q98.24,5.271,89.187,17.208,82.3,26.277,75.971,35.7A397.385,397.385,0,0,0,50.637,80.519c-3.049,7-6.318,13.833-8.975,20.763" transform="translate(-3.647 124.653)"/>
    </clipPath>
    <clipPath id="clip-path-4">
      <path id="Path_23" data-name="Path 23" class="cls-1" d="M105.537,209.567a264.609,264.609,0,0,1-69.826-47.379c.115-1.695.233-3.375.337-5.1.387-3.737.738-6.781,1.091-9.874.329-3.1.683-6.263,1.272-9.419q.786-4.775,1.588-9.674c.6-3.26,1.385-6.515,2.076-9.847,1.264-6.7,3.359-13.329,5.111-20.239q.732-2.386,1.5-4.785A339.083,339.083,0,0,1,62.635,56.773q1.341-2.875,2.742-5.742A349.052,349.052,0,0,1,84.813,16.413a352.5,352.5,0,0,1,28.21-37.1A356.252,356.252,0,0,1,145.6-52.7c5.83-4.607,11.382-9.493,17.3-13.6,3.1-2.24,5.86-4.349,8.684-6.279q4.43-2.916,8.753-5.758c2.811-1.928,5.7-3.63,8.558-5.292,3.041-1.788,5.9-3.474,8.711-5.13,5.777-3,11.327-6.074,16.817-8.687l8.116-3.743c2.646-1.234,5.237-2.443,7.837-3.425,5.18-2.015,10.041-4.176,14.752-5.777q7.083-2.435,13.225-4.549c4.16-1.2,7.982-2.306,11.432-3.3l4.916-1.415,4.382-1.039,6.937-1.621,2.931-.686-4.73,2.739-6.745,3.91q-1.982,1.156-4.256,2.484l-4.7,3.049-10.913,7.1q-5.746,4.158-12.4,8.977c-4.42,3.181-8.824,6.992-13.6,10.751-2.408,1.859-4.735,3.949-7.113,6.087q-3.57,3.179-7.3,6.5c-4.914,4.486-9.742,9.476-14.837,14.459q-3.624,3.944-7.365,8.02c-2.506,2.69-5.026,5.435-7.392,8.4q-3.615,4.352-7.329,8.816c-2.416,3.016-4.7,6.208-7.088,9.345C168.291-16.176,164.035-9.29,159.4-2.611a389.731,389.731,0,0,0-23.9,43.9,386.548,386.548,0,0,0-17.708,47.835,381.876,381.876,0,0,0-10.351,49.326,377.318,377.318,0,0,0-3.022,48.122c.37,7.79.288,15.394,1.1,22.816L201.557,87.2" transform="translate(-35.711 123.002)"/>
    </clipPath>
  </defs>
  <g id="Group_14" data-name="Group 14" transform="translate(0 153)">
    <g id="Group_10" data-name="Group 10" class="cls-2" transform="translate(0 -153)">
      <path id="Path_16" data-name="Path 16" class="cls-3" d="M-5,173.082H376.435V-158H-5Z" transform="translate(-8.71 144.29)"/>
    </g>
    <g id="Group_11" data-name="Group 11" class="cls-4" transform="translate(97.921 -71.411)">
      <path id="Path_18" data-name="Path 18" class="cls-5" d="M30.711,236.9h284.78V-128.245H30.711Z" transform="translate(-44.421 114.535)"/>
    </g>
    <g id="Group_12" data-name="Group 12" class="cls-6" transform="translate(10.001 -75.272)">
      <path id="Path_20" data-name="Path 20" class="cls-7" d="M-1.353,123.7h362.64V-129.653H-1.353Z" transform="translate(-12.357 115.943)"/>
    </g>
    <g id="Group_13" data-name="Group 13" class="cls-8" transform="translate(97.921 -70.745)">
      <path id="Path_22" data-name="Path 22" class="cls-9" d="M30.711,231.987H311.365V-128H30.711Z" transform="translate(-44.421 114.292)"/>
    </g>
  </g>
</svg>
