<?xml version="1.0" encoding="iso-8859-1"?>
<!-- Generator: Adobe Illustrator 16.0.0, SVG Export Plug-In . SVG Version: 6.00 Build 0)  -->
<!DOCTYPE svg PUBLIC "-//W3C//DTD SVG 1.1//EN" "http://www.w3.org/Graphics/SVG/1.1/DTD/svg11.dtd">
<svg version="1.1" id="Capa_1" xmlns="http://www.w3.org/2000/svg" xmlns:xlink="http://www.w3.org/1999/xlink" x="0px" y="0px"
	 width="45.913px" height="45.912px" viewBox="0 0 45.913 45.912" style="enable-background:new 0 0 45.913 45.912;"
	 xml:space="preserve">
<g>
	<g>
		<path d="M33.862,37.352c5.629-3.601,9.36-9.906,9.36-17.084C43.222,9.075,34.149,0,22.956,0S2.69,9.074,2.69,20.267
			c0,7.179,3.732,13.484,9.361,17.084l-3.537,4.232c-1.437,1.725-0.211,4.328,2.033,4.328h24.816c2.244,0,3.469-2.604,2.033-4.328
			L33.862,37.352z M22.956,31.6c-6.259,0-11.333-5.074-11.333-11.333c0-6.259,5.074-11.332,11.333-11.332
			c6.259,0,11.333,5.073,11.333,11.332C34.29,26.525,29.215,31.6,22.956,31.6z"/>
		<path d="M22.956,13.381c-0.914,0-1.784,0.183-2.583,0.506c1.197,1.963,0.299,5.22-2.71,5.22c-0.548,0-1.025-0.111-1.434-0.301
			c-0.102,0.472-0.159,0.959-0.159,1.461c0,3.803,3.083,6.886,6.885,6.886c3.802,0,6.885-3.083,6.885-6.886
			S26.759,13.381,22.956,13.381z"/>
	</g>
</g>
<g>
</g>
<g>
</g>
<g>
</g>
<g>
</g>
<g>
</g>
<g>
</g>
<g>
</g>
<g>
</g>
<g>
</g>
<g>
</g>
<g>
</g>
<g>
</g>
<g>
</g>
<g>
</g>
<g>
</g>
</svg>
